<svg xmlns="http://www.w3.org/2000/svg" xmlns:xlink="http://www.w3.org/1999/xlink" version="1.1" x="0px" y="0px" viewBox="0 0 100 125" style="enable-background:new 0 0 100 100;" xml:space="preserve"><g><path d="M93,28.04H32.633c-0.655-3.064-1.284-5.914-1.864-8.381C29.57,14.561,25.071,11,19.828,11H9.719   c-0.291-0.071-0.59-0.119-0.903-0.119C6.709,10.881,5,12.59,5,14.698c0,2.108,1.709,3.817,3.817,3.817   c2.005,0,3.63-1.55,3.786-3.515h7.224c3.378,0,6.276,2.293,7.048,5.575c1.489,6.332,3.311,15.243,5.072,23.861   c1.767,8.644,3.593,17.582,5.094,23.958c0.952,4.045,3.994,7.111,7.831,8.191c-1.18,1.332-1.904,3.077-1.904,4.992   c0,4.158,3.383,7.542,7.542,7.542s7.542-3.384,7.542-7.542c0-1.716-0.583-3.296-1.552-4.564h15.638   c-0.97,1.269-1.552,2.848-1.552,4.564c0,4.158,3.383,7.542,7.542,7.542s7.541-3.384,7.541-7.542c0-1.716-0.583-3.296-1.552-4.564   h0.955c1.104,0,2-0.896,2-2s-0.896-2-2-2H47.931c-3.284,0-6.099-2.19-6.934-5.343H74.62c6.271,0,11.73-4.251,13.274-10.322   l7.04-26.8c0.157-0.6,0.028-1.238-0.351-1.729C94.205,28.327,93.62,28.04,93,28.04z M78.125,85.119   c-1.953,0-3.542-1.589-3.542-3.542c0-1.952,1.589-3.541,3.542-3.541s3.541,1.589,3.541,3.541   C81.666,83.53,80.078,85.119,78.125,85.119z M50.509,85.119c-1.953,0-3.542-1.589-3.542-3.542c0-1.952,1.589-3.541,3.542-3.541   s3.542,1.589,3.542,3.541C54.051,83.53,52.462,85.119,50.509,85.119z M84.021,56.347c-1.096,4.312-4.962,7.323-9.401,7.323H40.066   c-1.299-5.841-2.769-13.035-4.199-20.035c-0.796-3.892-1.603-7.843-2.388-11.595h56.928L84.021,56.347z"/><path d="M51.433,50.809c0.78,0.784,2.046,0.786,2.829,0.008c0.783-0.779,0.786-2.046,0.007-2.828l-0.82-0.821   c-0.894-0.894-1.386-2.082-1.386-3.347c0-1.264,0.493-2.452,1.386-3.347c1.846-1.844,4.848-1.844,6.693,0l0.52,0.52   c0.375,0.375,0.884,0.586,1.414,0.586h0c0.531,0,1.04-0.211,1.415-0.587l0.518-0.519c1.846-1.845,4.849-1.845,6.693,0   c1.845,1.846,1.845,4.849,0,6.693l-8.627,8.627l-4.185-4.185c-0.78-0.781-2.048-0.781-2.828,0c-0.781,0.781-0.781,2.047,0,2.828   l5.599,5.599c0.391,0.391,0.902,0.586,1.414,0.586s1.024-0.195,1.414-0.586L73.53,49.995c3.404-3.404,3.404-8.944,0-12.35   c-3.122-3.12-8.036-3.382-11.455-0.781c-3.42-2.6-8.334-2.338-11.456,0.781c-1.649,1.649-2.558,3.843-2.558,6.175   c0,2.333,0.909,4.525,2.557,6.174L51.433,50.809z"/></g></svg>
